<?xml version="1.0" encoding="UTF-8"?>
<svg width="250px" height="224px" viewBox="0 0 250 224" version="1.1" xmlns="http://www.w3.org/2000/svg" xmlns:xlink="http://www.w3.org/1999/xlink">
    <!-- Generator: Sketch 51.3 (57544) - http://www.bohemiancoding.com/sketch -->
    <title>Group 4</title>
    <desc>Created with Sketch.</desc>
    <defs>
        <polygon id="path-1" points="0.00229846769 0.147220339 249.010626 0.147220339 249.010626 224 0.00229846769 224"></polygon>
    </defs>
    <g id="Contatti" stroke="none" stroke-width="1" fill="none" fill-rule="evenodd">
        <g transform="translate(-855.000000, -189.000000)" id="Menu">
            <g>
                <g id="Page-1" transform="translate(159.000000, 29.000000)">
                    <g id="Group-21" transform="translate(34.000000, 33.000000)">
                        <g id="Group-4" transform="translate(662.000000, 127.000000)">
                            <path d="M76.1357955,185 C48.9133523,170.984402 32,143.211398 32,112.521208 C32,81.2260001 48.3073864,54.3393278 75.621875,40.6050438 L80.7419034,49.2063126 L155.43679,162.618204 C169.887926,150.336733 178.444318,132.15923 178.444318,112.521208 C178.444318,86.4245268 163.137926,62.7941593 139.447727,52.3084727 L145.718324,38 C175.053977,50.9828291 194,80.2317674 194,112.521208 C194,142.964767 177.370455,170.579772 150.600568,184.587663 L143.355824,172.606774 L70.6974432,62.2777749 C56.0046875,74.2779322 47.5556818,92.2396319 47.5556818,112.521208 C47.5556818,137.319221 61.228267,159.758821 83.2309659,171.084596 L76.1357955,185 Z" id="Fill-16" fill="#FFFFFF"></path>
                            <g id="Group-20">
                                <mask id="mask-2" fill="white">
                                    <use xlink:href="#path-1"></use>
                                </mask>
                                <g id="Clip-19"></g>
                                <path d="M112.696169,224.000769 C50.5532645,224.000769 0.00229846769,173.791447 0.00229846769,112.07438 C0.00229846769,50.3573119 50.5532645,0.144142373 112.696169,0.144142373 C129.563091,0.144142373 145.794104,3.76075254 160.937175,10.8900915 L154.340573,25.0256508 C141.277615,18.8697186 127.268454,15.753278 112.696169,15.753278 C59.1227182,15.753278 15.53994,58.9602271 15.53994,112.07438 C15.53994,165.180837 59.1227182,208.391634 112.696169,208.391634 C164.545769,208.391634 207.044437,167.935617 209.741306,117.199193 L209.967322,104.006261 L249.010626,104.006261 L249.010626,119.611549 L225.160193,119.611549 C221.245137,177.831278 172.299267,224.000769 112.696169,224.000769" id="Fill-18" fill="#FFFFFF" mask="url(#mask-2)"></path>
                            </g>
                        </g>
                    </g>
                </g>
            </g>
        </g>
    </g>
</svg>