<?xml version="1.0" encoding="UTF-8"?>
<svg width="113px" height="106px" viewBox="0 0 113 106" version="1.1" xmlns="http://www.w3.org/2000/svg" xmlns:xlink="http://www.w3.org/1999/xlink">
    <!-- Generator: Sketch 48 (47235) - http://www.bohemiancoding.com/sketch -->
    <title>Page 1</title>
    <desc>Created with Sketch.</desc>
    <defs></defs>
    <g id="Il-gruppo---Valori" stroke="none" stroke-width="1" fill="none" fill-rule="evenodd" transform="translate(-470.000000, -939.000000)">
        <g id="Page-1" transform="translate(470.000000, 939.000000)" fill="#EEF2E0">
            <path d="M63.6666667,91.3127785 L75.3329637,91.3127785 L75.3329637,25.6875928 L63.6666667,25.6875928 L63.6666667,91.3127785 Z M77.6666667,96 L61.3333333,96 C60.0450465,96 59,94.95101 59,93.6562036 L59,23.3437964 C59,22.0493613 60.0450465,21 61.3333333,21 L77.6666667,21 C78.9549535,21 80,22.0493613 80,23.3437964 L80,93.6562036 C80,94.95101 78.9549535,96 77.6666667,96 Z" id="Fill-1"></path>
            <path d="M11.6667488,91.3173356 L23.3332512,91.3173356 L23.3332512,4.68266444 L11.6667488,4.68266444 L11.6667488,91.3173356 Z M25.6666256,96 L9.33337441,96 C8.0446952,96 7,94.9520299 7,93.6584823 L7,2.34114674 C7,1.04797014 8.0446952,0 9.33337441,0 L25.6666256,0 C26.9553048,0 28,1.04797014 28,2.34114674 L28,93.6584823 C28,94.9520299 26.9553048,96 25.6666256,96 Z" id="Fill-3"></path>
            <path d="M37.6667488,91.3046228 L49.3332512,91.3046228 L49.3332512,46.6953772 L37.6667488,46.6953772 L37.6667488,91.3046228 Z M51.6666256,96 L35.3333744,96 C34.0446952,96 33,94.9491848 33,93.6521254 L33,44.3478746 C33,43.0508152 34.0446952,42 35.3333744,42 L51.6666256,42 C52.9553048,42 54,43.0508152 54,44.3478746 L54,93.6521254 C54,94.9491848 52.9553048,96 51.6666256,96 Z" id="Fill-4"></path>
            <path d="M89.6667488,92.2634146 L101.333251,92.2634146 L101.333251,56.7365854 L89.6667488,56.7365854 L89.6667488,92.2634146 Z M103.666626,97 L87.3333744,97 C86.0446952,97 85,95.9399625 85,94.6315197 L85,54.3684803 C85,53.0600375 86.0446952,52 87.3333744,52 L103.666626,52 C104.955305,52 106,53.0600375 106,54.3684803 L106,94.6315197 C106,95.9399625 104.955305,97 103.666626,97 Z" id="Fill-5"></path>
            <polygon id="Fill-6" points="0 106 113 106 113 101 0 101"></polygon>
        </g>
    </g>
</svg>