<?xml version="1.0" encoding="UTF-8"?>
<svg width="114px" height="120px" viewBox="0 0 114 120" version="1.1" xmlns="http://www.w3.org/2000/svg" xmlns:xlink="http://www.w3.org/1999/xlink">
    <!-- Generator: Sketch 48 (47235) - http://www.bohemiancoding.com/sketch -->
    <title>Page 1</title>
    <desc>Created with Sketch.</desc>
    <defs>
        <polygon id="path-1" points="0 0 113.942463 0 113.942463 119.999873 0 119.999873"></polygon>
    </defs>
    <g id="Il-gruppo---Valori" stroke="none" stroke-width="1" fill="none" fill-rule="evenodd" transform="translate(-1115.000000, -1400.000000)">
        <g id="Page-1" transform="translate(1115.000000, 1400.000000)">
            <path d="M75.2857143,30 L42.7146017,30 C41.2157574,30 40,31.3433826 40,33 C40,34.6566174 41.2157574,36 42.7146017,36 L75.2857143,36 C76.7842426,36 78,34.6566174 78,33 C78,31.3433826 76.7842426,30 75.2857143,30" id="Fill-1" fill="#EEF2E0"></path>
            <path d="M17,60 C17,61.6566174 18.211695,63 19.7059194,63 L60.2943956,63 C61.7886199,63 63,61.6566174 63,60 C63,58.3433826 61.7886199,57 60.2943956,57 L19.7059194,57 C18.211695,57 17,58.3433826 17,60" id="Fill-3" fill="#EEF2E0"></path>
            <path d="M19.7692556,74 L50.2307444,74 C51.7596211,74 53,72.6566174 53,71 C53,69.3437318 51.7596211,68 50.2307444,68 L19.7692556,68 C18.2397342,68 17,69.3437318 17,71 C17,72.6566174 18.2397342,74 19.7692556,74" id="Fill-5" fill="#EEF2E0"></path>
            <path d="M70,43 C70,41.3437318 68.8242347,40 67.3746944,40 L51.625,40 C50.1754598,40 49,41.3437318 49,43 C49,44.6566174 50.1754598,46 51.625,46 L67.3746944,46 C68.8242347,46 70,44.6566174 70,43" id="Fill-7" fill="#EEF2E0"></path>
            <path d="M86.375,63 C87.8245402,63 89,61.6566174 89,60 C89,58.3433826 87.8245402,57 86.375,57 L70.6253056,57 C69.1757653,57 68,58.3433826 68,60 C68,61.6566174 69.1757653,63 70.6253056,63 L86.375,63 Z" id="Fill-9" fill="#EEF2E0"></path>
            <path d="M59.6,68 C58.1642649,68 57,69.3437318 57,71 C57,72.6566174 58.1642649,74 59.6,74 L67.3996974,74 C68.8357351,74 70,72.6566174 70,71 C70,69.3437318 68.8357351,68 67.3996974,68 L59.6,68 Z" id="Fill-11" fill="#EEF2E0"></path>
            <g id="Group-15">
                <mask id="mask-2" fill="white">
                    <use xlink:href="#path-1"></use>
                </mask>
                <g id="Clip-14"></g>
                <path d="M105.803937,5.45447619 L59.6841474,5.45447619 L59.6841474,2.7271746 C59.6841474,1.22146032 58.4693053,-0.000126984127 56.9712,-0.000126984127 C55.4730947,-0.000126984127 54.2582526,1.22146032 54.2582526,2.7271746 L54.2582526,5.45447619 L8.13877895,5.45447619 C3.65077895,5.45447619 -6.31578947e-05,9.12463492 -6.31578947e-05,13.6360635 C-6.31578947e-05,18.1478095 3.65077895,21.8182857 8.13877895,21.8182857 L94.9521474,21.8182857 C96.4502526,21.8182857 97.6650947,20.5966984 97.6650947,19.0909841 C97.6650947,17.5849524 96.4502526,16.3633651 94.9521474,16.3633651 L8.13877895,16.3633651 C6.6432,16.3633651 5.42583158,15.139873 5.42583158,13.6360635 C5.42583158,12.1328889 6.6432,10.9090794 8.13877895,10.9090794 L105.803937,10.9090794 C107.299516,10.9090794 108.516884,12.1328889 108.516884,13.6360635 C108.516884,15.139873 107.299516,16.3633651 105.803937,16.3633651 C104.305832,16.3633651 103.090674,17.5849524 103.090674,19.0909841 L103.090674,79.0909841 C103.090674,80.595746 101.873621,81.8182857 100.378042,81.8182857 L13.5646737,81.8182857 C12.0690947,81.8182857 10.8517263,80.595746 10.8517263,79.0909841 L10.8517263,29.999873 C10.8517263,28.4938413 9.63688421,27.2728889 8.13877895,27.2728889 C6.64035789,27.2728889 5.42583158,28.4938413 5.42583158,29.999873 L5.42583158,79.0909841 C5.42583158,83.6027302 9.07667368,87.2728889 13.5646737,87.2728889 L54.2582526,87.2728889 L54.2582526,106.730984 C51.9507789,107.326857 49.8845684,108.653206 48.3820421,110.60654 C46.4285684,113.147175 43.8662526,114.545587 41.1678316,114.545587 L40.6935158,114.545587 C39.1957263,114.545587 37.9808842,115.76527 37.9808842,117.272889 C37.9808842,118.78019 39.1957263,119.999873 40.6935158,119.999873 L41.1678316,119.999873 C45.5197263,119.999873 49.7134105,117.791937 52.6742526,113.940825 C54.7508842,111.24527 59.1918316,111.24527 61.2684632,113.940825 C64.2293053,117.791937 68.4229895,119.999873 72.7745684,119.999873 L73.2485684,119.999873 C74.7466737,119.999873 75.9618316,118.78019 75.9618316,117.272889 C75.9618316,115.76527 74.7466737,114.545587 73.2485684,114.545587 L72.7745684,114.545587 C70.0761474,114.545587 67.5141474,113.147175 65.5603579,110.60654 C64.0581474,108.653206 61.9919368,107.326857 59.6841474,106.730984 L59.6841474,87.2728889 L100.378042,87.2728889 C104.865726,87.2728889 108.516884,83.6027302 108.516884,79.0909841 L108.516884,21.3506667 C111.675095,20.2252698 113.942463,17.1919365 113.942463,13.6360635 C113.942463,9.12463492 110.291937,5.45447619 105.803937,5.45447619" id="Fill-13" fill="#EEF2E0" mask="url(#mask-2)"></path>
            </g>
        </g>
    </g>
</svg>