<?xml version="1.0" encoding="UTF-8"?>
<svg width="401px" height="640px" viewBox="0 0 401 640" version="1.1" xmlns="http://www.w3.org/2000/svg" xmlns:xlink="http://www.w3.org/1999/xlink">
    <!-- Generator: Sketch 48 (47235) - http://www.bohemiancoding.com/sketch -->
    <title>Page 1</title>
    <desc>Created with Sketch.</desc>
    <defs>
        <polygon id="path-1" points="0 0.870065359 713.764012 0.870065359 713.764012 640 0 640"></polygon>
    </defs>
    <g id="Il-gruppo" stroke="none" stroke-width="1" fill="none" fill-rule="evenodd" transform="translate(0.000000, -616.000000)">
        <g id="Page-1" transform="translate(-313.000000, 616.000000)">
            <path d="M217.412361,527 C139.438342,487.050822 91,407.888624 91,320.411175 C91,231.202078 137.702426,154.57461 215.935787,115.420149 L230.605326,139.943448 L444.541338,463.205123 C485.935624,428.199922 510.447601,376.384361 510.447601,320.411175 C510.447601,246.029828 466.602117,178.662907 398.754974,148.785723 L416.712297,108 C500.722286,145.004542 555,228.374558 555,320.411175 C555,407.185926 507.368963,485.900573 430.683287,525.820472 L409.944315,491.676912 L201.82676,177.190588 C159.754839,211.396889 135.556582,262.601773 135.556582,320.411175 C135.556582,391.090812 174.713,455.057181 237.733041,487.343612 L217.412361,527 Z" id="Fill-1" fill="#F6F6F6"></path>
            <g id="Group-5">
                <mask id="mask-2" fill="white">
                    <use xlink:href="#path-1"></use>
                </mask>
                <g id="Clip-4"></g>
                <path d="M323.031146,640.001673 C144.91252,640.001673 -0.00250877193,496.645856 -0.00250877193,320.436706 C-0.00250877193,144.223373 144.91252,0.867555556 323.031146,0.867555556 C371.379363,0.867555556 417.904538,11.1912157 461.310474,31.5499085 L442.394333,71.8991895 C404.955094,54.3305621 364.793836,45.4207582 323.031146,45.4207582 C169.469216,45.4207582 44.5449181,168.798536 44.5449181,320.436706 C44.5449181,472.070693 169.469216,595.444288 323.031146,595.444288 C471.654977,595.444288 593.472579,479.930562 601.191234,335.068863 L601.847696,297.400889 L713.764012,297.400889 L713.764012,341.958275 L645.399977,341.958275 C634.177404,508.174222 493.874333,640.001673 323.031146,640.001673" id="Fill-3" fill="#F6F6F6" mask="url(#mask-2)"></path>
            </g>
        </g>
    </g>
</svg>