<?xml version="1.0" encoding="UTF-8"?>
<svg width="146px" height="103px" viewBox="0 0 146 103" version="1.1" xmlns="http://www.w3.org/2000/svg" xmlns:xlink="http://www.w3.org/1999/xlink">
    <!-- Generator: Sketch 48 (47235) - http://www.bohemiancoding.com/sketch -->
    <title>Page 1</title>
    <desc>Created with Sketch.</desc>
    <defs>
        <polygon id="path-1" points="0 0 146 0 146 103 0 103"></polygon>
    </defs>
    <g id="Il-gruppo---Valori" stroke="none" stroke-width="1" fill="none" fill-rule="evenodd" transform="translate(-460.000000, -650.000000)">
        <g id="Page-1" transform="translate(460.000000, 650.000000)">
            <mask id="mask-2" fill="white">
                <use xlink:href="#path-1"></use>
            </mask>
            <g id="Clip-2"></g>
            <path d="M139.621508,43.6683781 L125.844616,53.1034273 C125.099619,53.6125247 124.019873,53.395935 123.520803,52.657967 L100.403692,18.4239556 C99.8846372,17.6552854 100.083377,16.6041555 100.846694,16.0811025 L114.906151,6.45290893 L139.621508,43.6683781 Z M22.1162835,55.0985087 C21.8453755,55.5400614 21.3746174,55.8029834 20.8572276,55.8029834 C20.5857645,55.8029834 20.3192976,55.7265072 20.0866942,55.581928 L6.36254056,47.0344499 L28.5581199,10.8851827 L42.2794979,19.4304278 C42.614802,19.6392024 42.8496259,19.966878 42.9401136,20.3537251 C43.0306013,20.7411304 42.9662052,21.1402583 42.758028,21.4785402 L22.1162835,55.0985087 Z M78.4451576,30.4541736 L55.1442959,44.2679073 C55.0921128,44.3008423 55.0404849,44.3337774 55.0021803,44.360572 C53.8513765,45.16441 52.4557563,45.4658493 51.0745697,45.2152081 C49.6894972,44.9623341 48.4859552,44.1830577 47.6865546,43.0208419 C46.0599965,40.6584511 46.6134704,37.3956501 48.915633,35.7209875 L68.3377364,24.5883887 C75.2031441,20.9270179 80.7195633,19.5537946 88.0163142,19.6966991 C90.2785068,19.7363328 93.3661916,19.9886487 95.2969661,20.1862588 C95.4796069,20.633952 95.7066589,21.0587581 95.9747912,21.4550949 L119.091347,55.6879899 C119.305075,56.0056176 119.543785,56.3025911 119.805256,56.577794 L119.16407,56.9635246 L81.3291062,30.5607938 C80.8799986,30.2476319 80.3515059,30.0823985 79.8024732,30.0823985 C79.3244982,30.0823985 78.8548504,30.2113475 78.4451576,30.4541736 Z M62.8207621,89.6674527 L67.5683134,85.1575862 C68.2178264,84.4955363 69.0716306,84.1304598 69.9720665,84.1304598 C70.918579,84.1304598 71.8117982,84.5273549 72.4868475,85.2474598 C73.9046733,86.7596801 73.9141107,89.1572388 72.5462474,90.5550239 L67.0131741,95.6822826 C66.5085525,95.9753485 65.9373141,96.1294175 65.3538627,96.1294175 C64.4084605,96.1294175 63.5152414,95.7330807 62.840192,95.0124175 C62.2489686,94.3821862 61.8809113,93.5504371 61.8043021,92.6712392 C61.7054873,91.5285611 62.0757652,90.4350064 62.8207621,89.6674527 Z M49.5745834,85.023055 L58.6644342,76.1920008 L61.1764395,73.6319999 C61.8265076,72.9699499 62.6814222,72.6054317 63.5835235,72.6054317 C64.5305911,72.6054317 65.4243654,73.0012103 66.0988597,73.7196406 C67.5166854,75.2329773 67.5177957,77.6400257 66.1260615,79.0612561 L59.0630242,85.8263348 L54.4964484,90.4740818 C53.8463803,91.13669 52.9920209,91.5012082 52.0910298,91.5012082 C51.1456276,91.5012082 50.2529636,91.1054296 49.5779142,90.3853247 C48.987246,89.7562098 48.6202989,88.9250189 48.5442448,88.0452628 C48.4443198,86.8981189 48.8201491,85.7978656 49.5745834,85.023055 Z M38.3541079,78.3177059 L45.3732892,71.592819 L49.9648463,66.9182774 C50.6165798,66.2562275 51.4714943,65.8917093 52.3724854,65.8917093 C53.3184428,65.8917093 54.2111068,66.2874879 54.8850459,67.0064763 C55.4768244,67.6372659 55.8448817,68.4684568 55.9220461,69.3470965 C56.0208609,70.4975897 55.6417007,71.6023088 54.8989244,72.3586981 L45.799081,81.1986838 L43.2859654,83.7603594 C42.6358973,84.4224094 41.7820931,84.7863694 40.8805469,84.7863694 C39.9340344,84.7863694 39.0408152,84.3905908 38.366321,83.6721605 C36.9529363,82.1638477 36.9484952,79.7651726 38.3541079,78.3177059 Z M29.6406415,69.0562634 L37.457558,61.7067274 C37.9616244,61.4158943 38.5311974,61.2629418 39.1129833,61.2629418 C40.0583856,61.2629418 40.9504944,61.6592786 41.6249887,62.3793835 C42.2156569,63.0084984 42.5837142,63.8402475 42.6608786,64.7194454 C42.7602485,65.8693804 42.3833089,66.9707502 41.6510802,67.7176497 L34.6446671,74.4291393 L34.5869327,74.4849614 C33.9374197,75.1470113 33.0836154,75.5115296 32.1820692,75.5115296 C31.2350016,75.5115296 30.3423376,75.115751 29.6695088,74.3984371 C28.2550138,72.8895661 28.2439111,70.4981479 29.6406415,69.0562634 Z M110.908038,68.2183739 C110.174699,68.2183739 109.456904,67.9733149 108.840144,67.5150156 L107.963024,66.854082 L107.941374,66.8814349 L96.7136816,58.9541402 C96.129675,58.5410568 95.420207,58.3819639 94.7140698,58.5053307 C94.0084878,58.6298139 93.3933934,59.0233596 92.9803698,59.6145155 C92.1348926,60.831437 92.4296716,62.5155894 93.6370996,63.3674345 L105.654755,71.8496006 C107.589416,73.2898105 108.067946,76.2589873 106.722843,78.4673091 C105.963968,79.7110252 104.742661,80.4540172 103.454738,80.4540172 C102.721399,80.4540172 102.003049,80.2089582 101.377407,79.7439602 L88.9628267,70.5366651 C88.3865921,70.1101844 87.6804549,69.9332284 86.9737626,70.0420814 C86.2642946,70.1503763 85.640318,70.5305247 85.217857,71.1105162 C84.3435126,72.3062253 84.5983216,73.9959599 85.7863197,74.8779489 L95.0782412,81.7641616 C96.0786022,82.5105029 96.7325563,83.7324484 96.8702308,85.1162779 C96.9856998,86.2667711 96.7281152,87.4278705 96.1463292,88.3841029 C95.3880089,89.627819 94.1661473,90.3702528 92.877669,90.3702528 C92.1448852,90.3702528 91.4265349,90.1251938 90.8008929,89.660754 L85.2089748,85.5047996 L83.1754995,83.7709656 C82.6297976,83.3042929 81.9369838,83.082121 81.2241849,83.1390596 C80.5108309,83.1976728 79.8624282,83.5337217 79.3977766,84.0846857 C78.9364559,84.6339751 78.7144002,85.3317512 78.7738001,86.0485068 C78.8326448,86.7652624 79.1657284,87.4167061 79.7114303,87.8822623 L81.8437204,89.698713 L81.9541931,89.7857955 C82.9584401,90.5343697 83.6129493,91.7568734 83.7506239,93.1412612 C83.8622069,94.2515625 83.7461827,94.7517284 83.1610659,95.6895394 C82.5654015,96.6452136 81.4762182,97.609261 80.3825937,97.609261 C79.9079496,97.609261 79.3844533,97.4334215 78.9114746,97.1297493 L75.7688311,94.8946329 L76.2656807,94.432426 C79.7047687,90.9262407 79.7569518,85.1458636 76.3817048,81.5464554 C75.2142469,80.3027393 73.7386867,79.4319147 72.1282276,79.020506 C73.0253327,75.8872122 72.2392554,72.4150784 69.9931618,70.0186362 C68.296101,68.2105588 66.0194747,67.2146927 63.5835235,67.2146927 C62.7274987,67.2146927 61.8725842,67.3436417 61.054864,67.5931665 C60.6868067,65.9905144 59.9012846,64.5006228 58.7799032,63.305472 C57.0828424,61.4962781 54.8078815,60.4998538 52.3724854,60.4998538 C50.6193555,60.4998538 48.9428349,61.0217904 47.512796,61.9936529 C47.0858939,60.760543 46.4052931,59.6212142 45.5204011,58.6794956 C43.8255608,56.8686271 41.5500448,55.8716446 39.1129833,55.8716446 C37.4286907,55.8716446 35.7910298,56.3606461 34.3737592,57.2878509 C34.2405257,57.3760498 34.1167297,57.4731803 34.0090326,57.5758929 L29.3997111,61.9076869 L25.6386423,59.2326925 C26.0339015,58.8436125 26.382529,58.4059674 26.6739771,57.9325961 L47.3157216,24.3126275 C47.7181976,23.6561598 48.0085354,22.9327055 48.1739669,22.1830149 C52.2886594,21.8988805 55.8765247,21.7604417 59.1152073,21.7604417 C60.2443606,21.7604417 61.3268823,21.7783048 62.3577759,21.8140309 L46.1488188,31.1028262 C46.0871983,31.1396688 46.0266881,31.1770696 45.9556303,31.2256348 C41.1503446,34.5822169 39.9540194,41.2535146 43.2876308,46.0988718 C46.5945956,50.9018042 53.1702206,52.132123 57.9632933,48.8531336 L79.6864491,35.974978 L108.017983,55.743812 L108.524825,56.2261148 C108.611427,56.309848 108.700804,56.3846496 108.794068,56.4521943 L113.10639,59.6083751 C115.044936,61.0480267 115.525687,64.01832 114.178364,66.2294329 C113.418933,67.4742654 112.196517,68.2183739 110.908038,68.2183739 Z M145.550951,42.894684 L117.858937,1.19614297 C117.464233,0.603312408 116.839146,0.184646753 116.144112,0.0484408599 C115.447967,-0.0872068122 114.713518,0.0651874861 114.126181,0.465990073 L97.8328424,11.6248253 C96.6998031,12.4013106 95.822683,13.4965399 95.3014072,14.7687253 C93.1147135,14.5571596 90.1919051,14.3428028 88.1106879,14.305402 C81.8448307,14.2032475 76.6043157,15.1271031 71.1783842,17.3147707 C68.0790415,16.6789571 64.12756,16.3697027 59.1152073,16.3697027 C55.5872971,16.3697027 51.6713445,16.5265628 47.1641685,16.8492145 C46.6251283,16.0431435 45.9206565,15.3582065 45.0973849,14.846318 L29.0982704,4.88319184 C28.4998303,4.50918385 27.7637156,4.3874917 27.0725671,4.55105042 C26.3775327,4.71684202 25.7874197,5.14388099 25.409925,5.75680751 L0.398679106,46.4929757 C-0.37685049,47.7562295 0.013967574,49.420286 1.26802724,50.201237 L17.2693623,60.1671542 C17.6413056,60.3982576 18.0465573,60.5925185 18.5045472,60.7594266 L25.4443436,65.696332 C22.4526979,69.2315447 22.5504024,74.6591263 25.7735412,78.0977669 C27.4217498,79.8550462 29.6173257,80.84533 31.9750023,80.9000356 C31.9583481,83.2936867 32.8476812,85.6398891 34.4714637,87.3731649 C36.1690796,89.1812423 38.4451508,90.1771083 40.8805469,90.1771083 C41.7365716,90.1771083 42.5920413,90.0481593 43.4103166,89.7980764 C43.7778188,91.4018449 44.5622307,92.8917364 45.6825018,94.0863291 C47.3801177,95.8960812 49.6556337,96.8925054 52.0910298,96.8925054 C53.8447148,96.8925054 55.5217906,96.3700107 56.9518295,95.3970317 C57.3792867,96.6301416 58.0593324,97.7700286 58.9447795,98.7139801 C60.6423955,100.52429 62.9190218,101.520715 65.3538627,101.520715 C67.0370451,101.520715 68.6730406,101.032271 70.0792084,100.111765 C70.2113316,100.026916 70.3345725,99.9303434 70.4406041,99.8309801 L71.7390749,98.6280141 L75.9181635,101.599982 C77.3559743,102.528862 78.8576261,103 80.3864797,103 C83.7339697,103 86.3586683,100.704038 87.6987745,98.5554454 C88.4904032,97.2866094 88.9300735,96.1517463 89.0832919,94.8879343 C90.2696246,95.4629018 91.5564375,95.7615499 92.8782242,95.7615499 C96.0436284,95.7615499 98.9719882,94.0573016 100.71235,91.2008854 C101.699943,89.5781373 102.231766,87.6829775 102.252861,85.7615812 C102.650341,85.8179615 103.051707,85.8458726 103.455848,85.8458726 C106.621253,85.8458726 109.549057,84.141066 111.288309,81.2857663 C112.700583,78.9685914 113.151356,76.1244561 112.572346,73.4489034 C115.07991,72.9599019 117.322118,71.3812533 118.743829,69.0478901 C119.914618,67.1259356 120.428677,64.8679322 120.228272,62.5931821 C120.297109,62.5596889 120.364836,62.5222881 120.432008,62.4826544 L127.256335,58.3763816 C127.828129,58.1709564 128.366614,57.8974281 128.857357,57.5613792 L144.83038,46.6213665 C146.041694,45.7929667 146.364785,44.1210952 145.550951,42.894684 Z" id="Fill-1" fill="#EEF2E0" mask="url(#mask-2)"></path>
        </g>
    </g>
</svg>