<svg width="14" height="8" viewBox="0 0 14 8" xmlns="http://www.w3.org/2000/svg"><title>Fill 1</title><path d="M7.054 5.851c.245-.224.504-.435.735-.673 1.573-1.627 3.14-3.261 4.711-4.89.448-.463 1.168-.35 1.427.216a.902.902 0 0 1-.174.976c-.313.314-.615.638-.922.957l-5.06 5.256c-.378.392-.876.411-1.276.042-.228-.21-.446-.433-.666-.651-1.843-1.83-3.684-3.661-5.528-5.49C.04 1.338-.063 1.04.038.688a.857.857 0 0 1 1.38-.413c.08.068.152.144.226.218C3.42 2.254 5.194 4.017 6.967 5.78c.039.038.069.084.103.127l-.016-.056" fill="#FEFEFE" fill-rule="evenodd"/></svg>