<svg width="114" height="120" viewBox="0 0 114 120" xmlns="http://www.w3.org/2000/svg" xmlns:xlink="http://www.w3.org/1999/xlink"><title>Page 1</title><defs><path id="a" d="M0 0h113.942v120H0z"/></defs><g fill="none" fill-rule="evenodd"><path d="M75.286 30H42.715C41.215 30 40 31.343 40 33s1.216 3 2.715 3h32.57c1.5 0 2.715-1.343 2.715-3s-1.216-3-2.714-3M17 60c0 1.657 1.212 3 2.706 3h40.588C61.79 63 63 61.657 63 60s-1.211-3-2.706-3H19.706C18.212 57 17 58.343 17 60m2.77 14h30.46c1.53 0 2.77-1.343 2.77-3 0-1.656-1.24-3-2.77-3H19.77C18.24 68 17 69.344 17 71c0 1.657 1.24 3 2.77 3M70 43c0-1.656-1.176-3-2.625-3h-15.75C50.175 40 49 41.344 49 43c0 1.657 1.175 3 2.625 3h15.75C68.825 46 70 44.657 70 43m16.375 20C87.825 63 89 61.657 89 60s-1.175-3-2.625-3h-15.75C69.175 57 68 58.343 68 60s1.176 3 2.625 3h15.75zM59.6 68c-1.436 0-2.6 1.344-2.6 3 0 1.657 1.164 3 2.6 3h7.8c1.436 0 2.6-1.343 2.6-3 0-1.656-1.164-3-2.6-3h-7.8z" fill="#EEF2E0"/><mask id="b" fill="#fff"><use xlink:href="#a"/></mask><path d="M105.804 5.454h-46.12V2.727A2.72 2.72 0 0 0 56.971 0a2.72 2.72 0 0 0-2.713 2.727v2.727H8.138C3.652 5.454 0 9.124 0 13.636c0 4.512 3.65 8.182 8.139 8.182h86.813a2.72 2.72 0 0 0 2.713-2.727 2.72 2.72 0 0 0-2.713-2.728H8.14a2.723 2.723 0 0 1-2.713-2.727 2.724 2.724 0 0 1 2.713-2.727h97.665a2.724 2.724 0 0 1 2.713 2.727 2.723 2.723 0 0 1-2.713 2.727 2.721 2.721 0 0 0-2.713 2.728v60a2.723 2.723 0 0 1-2.713 2.727H13.565a2.723 2.723 0 0 1-2.713-2.727V30a2.72 2.72 0 0 0-2.713-2.727A2.72 2.72 0 0 0 5.426 30v49.09c0 4.512 3.65 8.182 8.139 8.182h40.693v19.458a10.773 10.773 0 0 0-5.876 3.876c-1.953 2.54-4.516 3.939-7.214 3.939h-.474a2.72 2.72 0 0 0-2.713 2.727A2.72 2.72 0 0 0 40.694 120h.474c4.352 0 8.545-2.208 11.506-6.06 2.077-2.695 6.518-2.695 8.594 0 2.961 3.852 7.155 6.06 11.507 6.06h.474a2.72 2.72 0 0 0 2.713-2.727 2.72 2.72 0 0 0-2.713-2.727h-.474c-2.699 0-5.26-1.399-7.215-3.94a10.77 10.77 0 0 0-5.876-3.875V87.273h40.694c4.488 0 8.139-3.67 8.139-8.182v-57.74a8.193 8.193 0 0 0 5.425-7.715c0-4.511-3.65-8.182-8.138-8.182" fill="#EEF2E0" mask="url(#b)"/></g></svg>