<?xml version="1.0" encoding="UTF-8"?>
<svg width="25px" height="15px" viewBox="0 0 25 15" version="1.1" xmlns="http://www.w3.org/2000/svg" xmlns:xlink="http://www.w3.org/1999/xlink">
    <!-- Generator: Sketch 51.3 (57544) - http://www.bohemiancoding.com/sketch -->
    <title>Page 1</title>
    <desc>Created with Sketch.</desc>
    <defs>
        <polygon id="path-1" points="0 3.24675325e-05 14.2363636 3.24675325e-05 14.2363636 24.9344481 0 24.9344481"></polygon>
    </defs>
    <g id="Contatti" stroke="none" stroke-width="1" fill="none" fill-rule="evenodd">
        <g transform="translate(-575.000000, -964.000000)" id="Bottone">
            <g transform="translate(174.000000, 964.000000)">
                <g id="Page-1" transform="translate(413.500000, 7.500000) rotate(90.000000) translate(-413.500000, -7.500000) translate(406.000000, -5.000000)">
                    <mask id="mask-2" fill="white">
                        <use xlink:href="#path-1"></use>
                    </mask>
                    <g id="Clip-2"></g>
                    <path d="M10.4125649,12.3715909 C10.0141883,11.9339286 9.63853896,11.4728896 9.21451299,11.0625 C6.31905844,8.2599026 3.41061688,5.47094156 0.512564935,2.67094156 C-0.31211039,1.87386364 -0.111136364,0.591396104 0.896006494,0.130357143 C1.40152597,-0.101136364 2.15217532,-0.0400974026 2.63431818,0.440422078 C3.19243506,0.996915584 3.76840909,1.53522727 4.33594156,2.08198052 C7.45444805,5.08652597 10.5729545,8.09074675 13.6908117,11.0956169 C14.3878896,11.7680195 14.4219805,12.6547078 13.7641883,13.3673701 C13.3898377,13.7732143 12.9950325,14.1605519 12.6060714,14.5527597 C9.3499026,17.8345779 6.09113636,21.1141234 2.83821429,24.3988636 C2.37977273,24.8618506 1.84925325,25.0462662 1.22198052,24.8667208 C0.158993506,24.5628247 -0.228668831,23.2524351 0.487564935,22.4102273 C0.608344156,22.2680195 0.744383117,22.1391234 0.875876623,22.0063312 C4.01191558,18.8452922 7.14795455,15.6849026 10.2852922,12.5258117 C10.3531494,12.4573052 10.4356169,12.4034091 10.5115909,12.3423701 C10.478474,12.3521104 10.4456818,12.3621753 10.4125649,12.3715909" id="Fill-1" fill="#FEFEFE" mask="url(#mask-2)"></path>
                </g>
            </g>
        </g>
    </g>
</svg>