<?xml version="1.0" encoding="UTF-8"?>
<svg width="14px" height="8px" viewBox="0 0 14 8" version="1.1" xmlns="http://www.w3.org/2000/svg" xmlns:xlink="http://www.w3.org/1999/xlink">
    <!-- Generator: Sketch 51.3 (57544) - http://www.bohemiancoding.com/sketch -->
    <title>Fill 1</title>
    <desc>Created with Sketch.</desc>
    <defs></defs>
    <g id="Il-gruppo" stroke="none" stroke-width="1" fill="none" fill-rule="evenodd">
        <g transform="translate(-945.000000, -47.000000)" fill="#FEFEFE" id="Menu">
            <g>
                <g id="Group-2" transform="translate(853.000000, 40.000000)">
                    <path d="M100.851247,10.9463042 C100.627384,10.7005698 100.416291,10.44171 100.178014,10.2112884 C98.5509417,8.63771297 96.9165716,7.07179392 95.2880398,5.49967682 C94.8246216,5.05214117 94.937557,4.33207362 95.503511,4.07321389 C95.7875827,3.94323714 96.2094027,3.97750871 96.4803382,4.24730617 C96.7939664,4.5597608 97.1176294,4.86200688 97.4365487,5.16899264 C99.1889627,6.85595595 100.941377,8.54273697 102.693426,10.2298826 C103.085142,10.6074167 103.104299,11.105266 102.734659,11.5054048 C102.524297,11.7332742 102.30244,11.9507529 102.083867,12.1709659 C100.254095,14.0136097 98.4228631,15.8549774 96.5949156,17.6992618 C96.3372988,17.9592153 96.0391786,18.0627591 95.6866889,17.9619497 C95.0893538,17.791321 94.8715108,17.0555761 95.2739913,16.5827013 C95.341862,16.5028558 95.4183077,16.4304845 95.4921992,16.3559256 C97.2544655,14.5810958 99.0167317,12.8066306 100.779728,11.0328946 C100.817859,10.9944303 100.864201,10.9641692 100.906894,10.9298976 C100.888284,10.9353665 100.869857,10.9410176 100.851247,10.9463042" id="Fill-1" transform="translate(99.000000, 11.000000) rotate(90.000000) translate(-99.000000, -11.000000) "></path>
                </g>
            </g>
        </g>
    </g>
</svg>