<?xml version="1.0" encoding="UTF-8"?>
<svg width="132px" height="70px" viewBox="0 0 132 70" version="1.1" xmlns="http://www.w3.org/2000/svg" xmlns:xlink="http://www.w3.org/1999/xlink">
    <!-- Generator: Sketch 48 (47235) - http://www.bohemiancoding.com/sketch -->
    <title>Page 1</title>
    <desc>Created with Sketch.</desc>
    <defs>
        <polygon id="path-1" points="0 0 132 0 132 70 0 70"></polygon>
    </defs>
    <g id="Il-gruppo---Valori" stroke="none" stroke-width="1" fill="none" fill-rule="evenodd" transform="translate(-1119.000000, -1702.000000)">
        <g id="Page-1" transform="translate(1119.000000, 1702.000000)">
            <mask id="mask-2" fill="white">
                <use xlink:href="#path-1"></use>
            </mask>
            <g id="Clip-2"></g>
            <path d="M17.4038932,8.82088228 C19.7676178,6.797457 22.7114137,5.71090051 25.7864057,5.71090051 C26.1308504,5.71090051 26.4779279,5.72498876 26.8250053,5.75272501 C30.2747181,6.0256849 33.4076295,7.62822364 35.6546378,10.2675697 C37.8985746,12.9033938 38.9850016,16.261681 38.7125173,19.7199068 L38.7125173,19.7229886 C38.4431045,23.1812143 36.8433012,26.325096 34.215868,28.5796566 C31.707345,30.7272347 28.5441575,31.7847341 25.2642538,31.639449 L24.746051,31.639449 C17.6544384,31.0530255 12.344724,24.8013634 12.9041724,17.6806322 C13.1766567,14.2193246 14.7733885,11.075443 17.4038932,8.82088228 M65.996051,21.7851565 C66.2321163,21.7851565 66.4681816,21.7935214 66.7099511,21.813333 C69.1039517,22.0026439 71.2816323,23.1173769 72.8423838,24.9510511 C74.4035741,26.7847252 75.1587198,29.1176518 74.9700431,31.5223404 C74.7809276,33.9248278 73.6699287,36.1124692 71.8423971,37.6784666 C70.1328981,39.1458461 67.9929529,39.8661081 65.7507712,39.8022707 L65.2435379,39.8022707 C62.8679662,39.6023936 60.7082757,38.4938242 59.1576162,36.6724773 C57.5968647,34.8388032 56.8412802,32.5063168 57.0303957,30.1011879 C57.3998511,25.3803025 61.3493378,21.7851565 65.996051,21.7851565 M97.784132,8.82088228 C100.150928,6.797457 103.094724,5.71090051 106.169716,5.71090051 C106.513722,5.71090051 106.860799,5.72498876 107.208316,5.75272501 C114.324061,6.31581486 119.657031,12.582886 119.096266,19.7199068 C118.823782,23.1812143 117.22705,26.325096 114.596546,28.5796566 C112.089778,30.7272347 108.94458,31.7847341 105.64888,31.639449 L105.128484,31.639449 C101.697639,31.3559229 98.5822785,29.7604283 96.345801,27.1329692 C94.1014254,24.4967049 93.0154372,21.138858 93.2874827,17.6775504 C93.5568955,14.2193246 95.1566988,11.075443 97.784132,8.82088228 M2.84419211,70 C4.41635198,70 5.68838421,68.7236924 5.68838421,67.1462483 L5.68838421,50.6343759 C5.68838421,43.307604 11.6295075,37.3469524 18.9312972,37.3469524 L24.5556191,37.3469524 C24.9856265,37.3755691 25.4130013,37.3971418 25.8390597,37.3971418 C26.0308079,37.3971418 26.2150968,37.3526757 26.4059675,37.3469524 L32.6880252,37.3469524 C39.9902537,37.3469524 45.931377,43.307604 45.931377,50.6343759 L45.931377,54.7644353 L45.931377,67.1462483 C45.931377,68.7236924 47.2034092,70 48.7755691,70 C50.347729,70 51.6197612,68.7236924 51.6197612,67.1462483 L51.6197612,54.7644353 C51.6197612,49.6618462 55.755292,45.5093338 60.8407882,45.5093338 L65.0517897,45.5093338 C65.3778056,45.5304662 65.7038214,45.5485167 66.0267658,45.5485167 C66.1755132,45.5485167 66.3189953,45.5141766 66.4668652,45.5093338 L71.1592118,45.5093338 C76.2451468,45.5093338 80.3806776,49.6618462 80.3806776,54.7644353 L80.3806776,67.1462483 C80.3806776,68.7236924 81.6527098,70 83.2248697,70 C84.7965908,70 86.0690618,68.7236924 86.0690618,67.1462483 L86.0690618,54.7644353 L86.0690618,50.6343759 C86.0690618,43.307604 92.0097463,37.3469524 99.3119748,37.3469524 L104.936735,37.3469524 C105.361916,37.3755691 105.786658,37.3971418 106.205696,37.3971418 C106.383403,37.3971418 106.55058,37.3522355 106.727409,37.3469524 L113.068703,37.3469524 C120.370931,37.3469524 126.312055,43.307604 126.312055,50.6343759 L126.312055,67.1462483 C126.312055,68.7236924 127.584087,70 129.156247,70 C130.728407,70 132,68.7236924 132,67.1462483 L132,50.6343759 C132,42.1202285 126.34979,34.9810065 118.641687,32.5763178 C122.067706,29.4830659 124.377021,25.1346386 124.767538,20.1716114 C125.575777,9.89423103 117.898827,0.872906492 107.658507,0.0619514478 C102.675247,-0.322833953 97.8789092,1.24096209 94.0930885,4.48170046 C90.3072678,7.72287909 88.0076056,12.2513718 87.616211,17.2289276 C87.1418865,23.2547374 89.6363685,28.7962635 93.8026141,32.5569465 C88.148455,34.2986067 83.6373258,38.5748317 81.6031273,44.1119552 C80.1924396,42.7189792 78.5022471,41.6231773 76.6321535,40.878261 C78.9291831,38.4414335 80.3754122,35.3605088 80.6417535,31.9683217 C81.2775503,23.8697777 75.2284863,16.7609334 67.1539996,16.1225595 C59.1352383,15.4841855 51.9975535,21.5566627 51.3586852,29.6552067 C51.0502207,33.5761435 52.28364,37.3856951 54.8303372,40.3790085 C54.9896155,40.5656779 55.1857515,40.7056799 55.3520503,40.8835441 C53.4885385,41.6284604 51.8040501,42.7225013 50.3973115,44.1119552 C48.3688171,38.5893602 43.8756781,34.3215001 38.241703,32.5701542 C41.8090097,29.3549508 44.0055579,24.9858314 44.3842277,20.1716114 C45.192905,9.89423103 37.515517,0.872906492 27.2751968,0.0619514478 C16.9651101,-0.774098296 8.03806776,6.951107 7.23246197,17.2289276 C6.75857622,23.2551777 9.25305819,28.797144 13.4197426,32.5573867 C5.68048612,34.942704 0,42.0977753 0,50.6343759 L0,67.1462483 C0,68.7236924 1.27203223,70 2.84419211,70" id="Fill-1" fill="#EEF2E0" mask="url(#mask-2)"></path>
        </g>
    </g>
</svg>