<svg width="25" height="15" viewBox="0 0 25 15" xmlns="http://www.w3.org/2000/svg" xmlns:xlink="http://www.w3.org/1999/xlink"><title>Page 1</title><defs><path id="a" d="M0 0h14.236v24.934H0z"/></defs><g transform="rotate(90 12.5 12.5)" fill="none" fill-rule="evenodd"><mask id="b" fill="#fff"><use xlink:href="#a"/></mask><path d="M10.413 12.372c-.399-.438-.774-.9-1.198-1.31C6.319 8.26 3.41 5.471.513 2.671-.312 1.874-.111.59.896.13c.506-.232 1.256-.171 1.738.31.558.556 1.134 1.094 1.702 1.641l9.355 9.014c.697.672.731 1.559.073 2.271-.374.406-.769.794-1.158 1.186-3.256 3.282-6.515 6.561-9.768 9.846-.458.463-.989.647-1.616.468-1.063-.304-1.45-1.615-.734-2.457.12-.142.256-.27.388-.404 3.136-3.16 6.272-6.321 9.41-9.48.067-.069.15-.123.226-.184l-.1.03" fill="#FEFEFE" mask="url(#b)"/></g></svg>