<svg width="250" height="224" viewBox="0 0 250 224" xmlns="http://www.w3.org/2000/svg" xmlns:xlink="http://www.w3.org/1999/xlink"><title>Group 4</title><defs><path id="a" d="M.002.147h249.009V224H.002z"/></defs><g fill="none" fill-rule="evenodd"><path d="M76.136 185C48.913 170.984 32 143.211 32 112.521c0-31.295 16.307-58.182 43.622-71.916l5.12 8.601 74.695 113.412c14.45-12.281 23.007-30.459 23.007-50.097 0-26.096-15.306-49.727-38.996-60.213L145.718 38C175.054 50.983 194 80.232 194 112.521c0 30.444-16.63 58.059-43.4 72.067l-7.244-11.981-72.659-110.33c-14.692 12-23.141 29.963-23.141 50.244 0 24.798 13.672 47.238 35.675 58.564L76.136 185z" fill="#FFF"/><mask id="b" fill="#fff"><use xlink:href="#a"/></mask><path d="M112.696 224C50.553 224 .002 173.792.002 112.075S50.553.144 112.696.144c16.867 0 33.098 3.617 48.241 10.746l-6.596 14.136c-13.063-6.156-27.073-9.273-41.645-9.273-53.573 0-97.156 43.207-97.156 96.321 0 53.107 43.583 96.318 97.156 96.318 51.85 0 94.348-40.456 97.045-91.193l.226-13.193h39.044v15.606h-23.85C221.244 177.832 172.298 224 112.695 224" fill="#FFF" mask="url(#b)"/></g></svg>