<svg width="401" height="640" viewBox="0 0 401 640" xmlns="http://www.w3.org/2000/svg" xmlns:xlink="http://www.w3.org/1999/xlink"><title>Page 1</title><defs><path id="a" d="M0 .87h713.764V640H0z"/></defs><g fill="none" fill-rule="evenodd"><path d="M-95.588 527C-173.562 487.05-222 407.889-222 320.411c0-89.209 46.702-165.836 124.936-204.99l14.67 24.522L131.54 463.205c41.395-35.005 65.907-86.82 65.907-142.794 0-74.381-43.846-141.748-111.693-171.625L103.712 108C187.722 145.005 242 228.375 242 320.411c0 86.775-47.631 165.49-124.317 205.41l-20.739-34.144-208.117-314.486c-42.072 34.206-66.27 85.41-66.27 143.22 0 70.68 39.156 134.646 102.176 166.933L-95.587 527z" fill="#F6F6F6"/><g transform="translate(-313)"><mask id="b" fill="#fff"><use xlink:href="#a"/></mask><path d="M323.031 640.002C144.913 640.002-.003 496.646-.003 320.437-.003 144.223 144.913.867 323.031.867c48.348 0 94.874 10.324 138.28 30.683L442.393 71.9c-37.439-17.57-77.6-26.48-119.363-26.48-153.56 0-278.485 123.38-278.485 275.018 0 151.634 124.924 275.007 278.486 275.007 148.624 0 270.442-115.513 278.16-260.375l.657-37.668h111.916v44.557H645.4c-11.223 166.216-151.526 298.044-322.369 298.044" fill="#F6F6F6" mask="url(#b)"/></g></g></svg>