<svg width="113" height="106" viewBox="0 0 113 106" xmlns="http://www.w3.org/2000/svg"><title>Page 1</title><path d="M63.667 91.313h11.666V25.688H63.667v65.625zm14 4.687H61.333A2.339 2.339 0 0 1 59 93.656V23.344A2.339 2.339 0 0 1 61.333 21h16.334A2.339 2.339 0 0 1 80 23.344v70.312A2.339 2.339 0 0 1 77.667 96zm-66-4.683h11.666V4.683H11.667v86.634zm14 4.683H9.333A2.337 2.337 0 0 1 7 93.658V2.341A2.337 2.337 0 0 1 9.333 0h16.334A2.337 2.337 0 0 1 28 2.341v91.317A2.337 2.337 0 0 1 25.667 96zm12-4.695h11.666v-44.61H37.667v44.61zm14 4.695H35.333A2.34 2.34 0 0 1 33 93.652V44.348A2.34 2.34 0 0 1 35.333 42h16.334A2.34 2.34 0 0 1 54 44.348v49.304A2.34 2.34 0 0 1 51.667 96zm38-3.737h11.666V56.737H89.667v35.526zm14 4.737H87.333C86.045 97 85 95.94 85 94.632V54.368C85 53.06 86.045 52 87.333 52h16.334c1.288 0 2.333 1.06 2.333 2.368v40.264c0 1.308-1.045 2.368-2.333 2.368zM0 106h113v-5H0z" fill="#EEF2E0" fill-rule="evenodd"/></svg>