<svg width="146" height="103" viewBox="0 0 146 103" xmlns="http://www.w3.org/2000/svg" xmlns:xlink="http://www.w3.org/1999/xlink"><title>Page 1</title><defs><path id="a" d="M0 0h146v103H0z"/></defs><g fill="none" fill-rule="evenodd"><mask id="b" fill="#fff"><use xlink:href="#a"/></mask><path d="M139.622 43.668l-13.777 9.435c-.745.51-1.825.293-2.324-.445l-23.117-34.234c-.52-.769-.32-1.82.443-2.343l14.06-9.628 24.715 37.215zM22.116 55.098a1.467 1.467 0 0 1-2.03.484L6.364 47.034l22.195-36.149L42.28 19.43a1.49 1.49 0 0 1 .479 2.049l-20.642 33.62zm56.33-24.644L55.143 44.268a3.92 3.92 0 0 0-.142.093 5.192 5.192 0 0 1-3.927.854 5.224 5.224 0 0 1-3.388-2.194c-1.627-2.363-1.074-5.625 1.229-7.3l19.422-11.133c6.865-3.661 12.382-5.034 19.678-4.891 2.263.04 5.35.292 7.281.49.183.447.41.872.678 1.268l23.116 34.233c.214.318.453.615.714.89l-.64.386L81.328 30.56a2.665 2.665 0 0 0-2.884-.107zM62.82 89.667l4.747-4.51a3.352 3.352 0 0 1 2.404-1.027c.947 0 1.84.397 2.515 1.117 1.418 1.513 1.427 3.91.06 5.308l-5.534 5.127a3.3 3.3 0 0 1-1.66.447c-.945 0-1.838-.396-2.513-1.117a3.93 3.93 0 0 1-1.036-2.34c-.099-1.143.272-2.237 1.017-3.005zm-13.246-4.644l9.09-8.831 2.511-2.56a3.357 3.357 0 0 1 2.408-1.027c.947 0 1.84.396 2.515 1.115 1.418 1.513 1.419 3.92.027 5.341l-7.063 6.765-4.567 4.648a3.354 3.354 0 0 1-2.405 1.027c-.945 0-1.838-.396-2.513-1.116a3.92 3.92 0 0 1-1.034-2.34c-.1-1.147.276-2.247 1.03-3.022zm-11.22-6.705l7.018-6.725 4.592-4.675a3.363 3.363 0 0 1 2.407-1.026c.946 0 1.84.395 2.513 1.114.592.631.96 1.462 1.037 2.341.099 1.15-.28 2.255-1.023 3.012l-9.1 8.84-2.513 2.561a3.354 3.354 0 0 1-2.405 1.026c-.947 0-1.84-.395-2.515-1.114-1.413-1.508-1.418-3.907-.012-5.354zm-8.714-9.262l7.817-7.35a3.309 3.309 0 0 1 1.655-.443c.945 0 1.837.396 2.512 1.116.59.63.959 1.461 1.036 2.34.1 1.15-.278 2.252-1.01 2.999l-7.006 6.711-.058.056a3.352 3.352 0 0 1-2.405 1.027c-.947 0-1.84-.396-2.512-1.114-1.415-1.508-1.426-3.9-.03-5.342zm81.267-.838a3.461 3.461 0 0 1-2.068-.703l-.877-.66-.022.026-11.227-7.927a2.667 2.667 0 0 0-3.733.66 2.711 2.711 0 0 0 .656 3.753l12.018 8.483c1.934 1.44 2.413 4.409 1.068 6.617-.759 1.244-1.98 1.987-3.268 1.987a3.471 3.471 0 0 1-2.078-.71l-12.414-9.207a2.645 2.645 0 0 0-1.99-.495 2.654 2.654 0 0 0-1.755 1.069 2.71 2.71 0 0 0 .568 3.767l9.292 6.886c1 .747 1.655 1.968 1.792 3.352a5.302 5.302 0 0 1-.724 3.268c-.758 1.244-1.98 1.986-3.268 1.986a3.474 3.474 0 0 1-2.077-.71l-5.592-4.155-2.034-1.734a2.654 2.654 0 0 0-1.95-.632 2.69 2.69 0 0 0-2.45 2.91c.058.716.39 1.368.936 1.833l2.133 1.817.11.087c1.004.748 1.659 1.97 1.797 3.355.111 1.11-.005 1.61-.59 2.549-.596.955-1.685 1.92-2.778 1.92-.475 0-.999-.177-1.472-.48l-3.142-2.235.497-.463c3.439-3.506 3.491-9.286.116-12.886a8.838 8.838 0 0 0-4.254-2.525c.897-3.134.111-6.606-2.135-9.002-1.697-1.808-3.974-2.804-6.41-2.804a8.68 8.68 0 0 0-2.528.378 9.33 9.33 0 0 0-2.275-4.288c-1.697-1.809-3.972-2.805-6.408-2.805-1.753 0-3.43.522-4.86 1.494a9.287 9.287 0 0 0-1.992-3.315c-1.694-1.81-3.97-2.807-6.407-2.807a8.633 8.633 0 0 0-4.74 1.416 2.65 2.65 0 0 0-.364.288l-4.61 4.332-3.76-2.675a6.91 6.91 0 0 0 1.035-1.3l20.642-33.62c.402-.657.693-1.38.858-2.13 4.115-.284 7.703-.423 10.941-.423 1.13 0 2.212.018 3.243.054l-16.21 9.289a3.61 3.61 0 0 0-.192.123c-4.806 3.356-6.002 10.028-2.668 14.873 3.307 4.803 9.882 6.033 14.675 2.754l21.723-12.878 28.332 19.769.507.482c.086.084.176.159.27.226l4.311 3.156c1.939 1.44 2.42 4.41 1.072 6.621-.76 1.245-1.981 1.99-3.27 1.99zm34.643-25.323L117.859 1.196a2.7 2.7 0 0 0-1.715-1.148 2.689 2.689 0 0 0-2.018.418L97.833 11.625a7.045 7.045 0 0 0-2.532 3.144c-2.186-.212-5.11-.426-7.19-.464-6.266-.102-11.507.822-16.933 3.01-3.099-.636-7.05-.945-12.063-.945-3.528 0-7.444.157-11.95.48a6.826 6.826 0 0 0-2.068-2.004L29.098 4.883a2.667 2.667 0 0 0-3.688.874L.399 46.493a2.71 2.71 0 0 0 .869 3.708l16.001 9.966a6.59 6.59 0 0 0 1.236.592l6.94 4.937c-2.992 3.536-2.895 8.963.329 12.402 1.648 1.757 3.843 2.747 6.201 2.802-.017 2.394.873 4.74 2.496 6.473 1.698 1.808 3.974 2.804 6.41 2.804a8.68 8.68 0 0 0 2.53-.379 9.324 9.324 0 0 0 2.272 4.288c1.697 1.81 3.973 2.807 6.408 2.807 1.754 0 3.43-.523 4.86-1.496a9.32 9.32 0 0 0 1.994 3.317c1.697 1.81 3.974 2.807 6.409 2.807a8.607 8.607 0 0 0 4.725-1.41c.132-.084.256-.18.362-.28l1.298-1.203 4.18 2.972c1.437.929 2.939 1.4 4.467 1.4 3.348 0 5.973-2.296 7.313-4.445.791-1.268 1.231-2.403 1.384-3.667a8.668 8.668 0 0 0 3.795.874c3.166 0 6.094-1.705 7.834-4.561a10.724 10.724 0 0 0 1.54-5.44c.398.057.8.085 1.204.085 3.165 0 6.093-1.705 7.832-4.56 1.413-2.317 1.863-5.162 1.284-7.837 2.508-.49 4.75-2.068 6.172-4.401a10.596 10.596 0 0 0 1.484-6.455c.07-.033.137-.07.204-.11l6.824-4.107a7.052 7.052 0 0 0 1.601-.815l15.973-10.94a2.714 2.714 0 0 0 .721-3.726z" fill="#EEF2E0" mask="url(#b)"/></g></svg>