<svg width="132" height="70" viewBox="0 0 132 70" xmlns="http://www.w3.org/2000/svg" xmlns:xlink="http://www.w3.org/1999/xlink"><title>Page 1</title><defs><path id="a" d="M0 0h132v70H0z"/></defs><g fill="none" fill-rule="evenodd"><mask id="b" fill="#fff"><use xlink:href="#a"/></mask><path d="M17.404 8.82a12.827 12.827 0 0 1 9.421-3.067 12.847 12.847 0 0 1 8.83 4.515 12.923 12.923 0 0 1 3.058 9.452v.003a12.918 12.918 0 0 1-4.497 8.857c-2.509 2.147-5.672 3.205-8.952 3.06h-.518c-7.092-.587-12.401-6.839-11.842-13.96a12.922 12.922 0 0 1 4.5-8.86m48.592 12.965a8.926 8.926 0 0 1 6.846 3.166 8.985 8.985 0 0 1 2.128 6.571 8.985 8.985 0 0 1-3.128 6.156c-1.71 1.468-3.849 2.188-6.091 2.124h-.507a8.922 8.922 0 0 1-6.086-3.13 8.984 8.984 0 0 1-2.128-6.57c.37-4.722 4.32-8.317 8.966-8.317M97.784 8.821a12.841 12.841 0 0 1 9.424-3.068c7.116.563 12.449 6.83 11.888 13.967a12.922 12.922 0 0 1-4.5 8.86c-2.506 2.147-5.651 3.205-8.947 3.06h-.52a12.84 12.84 0 0 1-8.783-4.507 12.927 12.927 0 0 1-3.059-9.455 12.918 12.918 0 0 1 4.497-8.857M2.844 70a2.847 2.847 0 0 0 2.844-2.854V50.634c0-7.326 5.942-13.287 13.243-13.287h5.625c.43.029.857.05 1.283.05.192 0 .376-.044.567-.05h6.282c7.302 0 13.243 5.96 13.243 13.287v16.512A2.847 2.847 0 0 0 48.776 70a2.847 2.847 0 0 0 2.844-2.854V54.764c0-5.102 4.135-9.255 9.22-9.255h4.212c.326.021.652.04.975.04.149 0 .292-.035.44-.04h4.692c5.086 0 9.222 4.153 9.222 9.255v12.382A2.847 2.847 0 0 0 83.225 70a2.848 2.848 0 0 0 2.844-2.854V50.634c0-7.326 5.94-13.287 13.243-13.287h5.625c.425.029.85.05 1.269.05.177 0 .345-.045.521-.05h6.342c7.302 0 13.243 5.96 13.243 13.287v16.512A2.847 2.847 0 0 0 129.156 70 2.847 2.847 0 0 0 132 67.146V50.634c0-8.514-5.65-15.653-13.358-18.058 3.426-3.093 5.735-7.441 6.126-12.404.808-10.278-6.87-19.3-17.11-20.11-4.983-.385-9.78 1.179-13.565 4.42-3.786 3.24-6.085 7.77-6.477 12.747-.474 6.026 2.02 11.567 6.187 15.328a18.927 18.927 0 0 0-12.2 11.555 14.917 14.917 0 0 0-4.97-3.234c2.296-2.437 3.742-5.517 4.009-8.91.636-8.098-5.414-15.207-13.488-15.845-8.019-.639-15.156 5.434-15.795 13.532A14.67 14.67 0 0 0 54.83 40.38c.16.187.356.327.522.505a14.916 14.916 0 0 0-4.955 3.228A18.93 18.93 0 0 0 38.242 32.57c3.567-3.215 5.764-7.584 6.142-12.398.809-10.278-6.868-19.3-17.109-20.11-10.31-.836-19.237 6.89-20.043 17.167-.473 6.026 2.021 11.568 6.188 15.328C5.68 34.943 0 42.097 0 50.634v16.512A2.847 2.847 0 0 0 2.844 70" fill="#EEF2E0" mask="url(#b)"/></g></svg>